<svg xmlns="http://www.w3.org/2000/svg" width="176.397" height="78.098" viewBox="0 0 176.397 78.098">
  <g id="Group_3048" data-name="Group 3048" transform="translate(-85 -30.934)">
    <path id="Path_11251" data-name="Path 11251" d="M30.023,7.531c10.51-1.359,16.861,2.885,9.406,9.511-8.19,7.282-25.341,12.376-26.216,12.565s-1.01-.96,1.21-1.755A84.68,84.68,0,0,0,26.349,21.89c7.817-4.6,9.839-11.052,5.987-12.172-3.3-.958-11.943,2.429-18.7,10.844C5.665,30.48,6.8,40.965,19.022,38.641c12.923-2.458,22.688-13.024,23.751-14.251a6.618,6.618,0,0,0,1.674-4.454V.1H0V28.733C3.315,19.9,14.118,9.582,30.023,7.531" transform="translate(85 30.882)" fill="#e32012"/>
    <g id="Group_3047" data-name="Group 3047">
      <path id="Path_11252" data-name="Path 11252" d="M130.122,2.875a2.3,2.3,0,0,0-2.5,2.509,2.5,2.5,0,1,0,5,0,2.3,2.3,0,0,0-2.5-2.509" transform="translate(22.08 29.517)" fill="#fff"/>
      <path id="Path_11253" data-name="Path 11253" d="M324.747,28.718c0,.911-.675,1.88-2.574,1.88h-5.981c-1.485,0-2.274-.521-2.526-1.678l12.05-2.748c2.142-.449,3.227-2.151,3.227-5.052,0-2.709-1.175-5.931-6.769-5.931h-5.981c-4.43,0-6.771,2.349-6.771,6.785v5.994c0,4.435,2.341,6.781,6.771,6.781h5.981c4.3,0,6.769-2.583,6.769-7.082v-.345l-4.2,1.2Zm-11.18-6.744c0-1.84.785-2.63,2.625-2.63h5.981c1.84,0,2.625.79,2.625,2.63,0,.074,0,.088-.083.121L313.567,24.66Z" transform="translate(-67.545 23.445)" fill="#fff"/>
      <path id="Path_11254" data-name="Path 11254" d="M103.93,6.784V7.7h-2.565v4.154h2.565V27.261h4.146V11.855h4.269V7.7h-4.269V6.784c0-1.845.783-2.635,2.621-2.635H113.2V0H110.7c-4.426,0-6.767,2.343-6.767,6.784" transform="translate(35.027 30.934)" fill="#fff"/>
      <rect id="Rectangle_581" data-name="Rectangle 581" width="4.145" height="19.56" transform="translate(150.132 38.635)" fill="#fff"/>
      <path id="Path_11255" data-name="Path 11255" d="M150.581,15.189H140.392V34.75h4.144V19.343h6.045c3.587,0,5.186,1.6,5.186,5.2V34.75h4.145V24.544c0-6.207-3.139-9.355-9.331-9.355" transform="translate(15.787 23.445)" fill="#fff"/>
      <path id="Path_11256" data-name="Path 11256" d="M195.4,15.19h-5.981c-4.426,0-6.77,2.349-6.77,6.784v.793l4.147-.793c0-1.84.783-2.63,2.624-2.63H195.4c1.486,0,2.276.518,2.529,1.678L185.871,23.77c-2.14.449-3.226,2.151-3.226,5.051,0,2.706,1.177,5.928,6.77,5.928H195.4c4.43,0,6.772-2.345,6.772-6.781V21.974c0-4.435-2.342-6.784-6.772-6.784m2.626,12.778c0,1.843-.783,2.63-2.626,2.63h-5.981c-1.84,0-2.624-.787-2.624-2.63,0-.079,0-.089.087-.121l11.143-2.568Z" transform="translate(-5.044 23.445)" fill="#fff"/>
      <path id="Path_11257" data-name="Path 11257" d="M235.1,15.189H224.906V34.75h4.147V19.343H235.1c3.588,0,5.188,1.6,5.188,5.2V34.75h4.147V24.544c0-6.207-3.143-9.355-9.335-9.355" transform="translate(-25.879 23.445)" fill="#fff"/>
      <path id="Path_11258" data-name="Path 11258" d="M279.914,15.189h-5.977c-4.432,0-6.77,2.349-6.77,6.785v5.994c0,4.436,2.338,6.782,6.77,6.782h5.977c4.432,0,6.773-2.346,6.773-6.782v-.8h-4.146v.8c0,1.843-.783,2.63-2.627,2.63h-5.977c-1.842,0-2.627-.786-2.627-2.63V21.974c0-1.84.785-2.631,2.627-2.631h5.977c1.844,0,2.627.79,2.627,2.631v.793h4.146v-.793c0-4.436-2.341-6.785-6.773-6.785" transform="translate(-46.714 23.445)" fill="#fff"/>
      <rect id="Rectangle_582" data-name="Rectangle 582" width="2.063" height="17.785" transform="translate(138.958 63.901)" fill="#fff"/>
      <path id="Path_11259" data-name="Path 11259" d="M120.933,87.246H118.9V74.693q.5-.129,1.111-.245t1.257-.206q.647-.091,1.309-.155t1.243-.065a5.9,5.9,0,0,1,3.9,1.1,3.741,3.741,0,0,1,1.283,3v9.124h-2.037V78.225a2.174,2.174,0,0,0-.78-1.791,3.428,3.428,0,0,0-2.209-.632c-.247,0-.52.013-.82.039s-.591.056-.873.09-.542.074-.78.116-.428.082-.569.116Z" transform="translate(26.384 -5.56)" fill="#fff"/>
      <path id="Path_11260" data-name="Path 11260" d="M149.138,85.252l3.889-10.568h2.2L150.17,87.571h-2.063l-5.053-12.887h2.2Z" transform="translate(14.474 -5.886)" fill="#fff"/>
      <path id="Path_11261" data-name="Path 11261" d="M181.34,81.06H172.9v.954a5.933,5.933,0,0,0,.225,1.765,2.867,2.867,0,0,0,.648,1.147,2.332,2.332,0,0,0,1.019.619,4.6,4.6,0,0,0,1.335.18,6.215,6.215,0,0,0,1.442-.167,8.777,8.777,0,0,0,1.323-.425,7.121,7.121,0,0,0,1.125-.58,8.665,8.665,0,0,0,.846-.606v1.985a5.311,5.311,0,0,1-1.958,1.121,8.177,8.177,0,0,1-2.751.451,8.32,8.32,0,0,1-2.222-.271,4.069,4.069,0,0,1-1.667-.889,3.889,3.889,0,0,1-1.045-1.624,7.469,7.469,0,0,1-.357-2.474V79.411a5.471,5.471,0,0,1,1.362-4.008,5.027,5.027,0,0,1,3.744-1.379h.211a6.642,6.642,0,0,1,2.063.309,4.307,4.307,0,0,1,1.64.954,4.377,4.377,0,0,1,1.072,1.624,6.447,6.447,0,0,1,.383,2.345Zm-7.54-4.446a3.77,3.77,0,0,0-.9,2.694h6.4a4.613,4.613,0,0,0-.251-1.637,3.057,3.057,0,0,0-.674-1.082,2.408,2.408,0,0,0-.992-.605,3.966,3.966,0,0,0-1.2-.18h-.106a3.151,3.151,0,0,0-2.275.811" transform="translate(0.764 -5.561)" fill="#fff"/>
      <path id="Path_11262" data-name="Path 11262" d="M206.6,83.688a4.774,4.774,0,0,1-.265,1.65,2.7,2.7,0,0,1-.86,1.2,4.069,4.069,0,0,1-1.561.721,9.787,9.787,0,0,1-2.368.245A8.946,8.946,0,0,1,199,87.168a4.517,4.517,0,0,1-1.839-1.005V84.024a6.283,6.283,0,0,0,1.839,1.2,6.19,6.19,0,0,0,2.553.5,4.318,4.318,0,0,0,2.368-.464,1.8,1.8,0,0,0,.648-1.572,1.45,1.45,0,0,0-.529-1.2,4.107,4.107,0,0,0-1.335-.683q-.807-.257-1.733-.49a8.1,8.1,0,0,1-1.732-.644,3.694,3.694,0,0,1-1.336-1.147,3.306,3.306,0,0,1-.529-1.972,3.116,3.116,0,0,1,1.138-2.706,5.075,5.075,0,0,1,3.043-.825h.662a4.941,4.941,0,0,1,2.618.619,4.8,4.8,0,0,1,1.614,1.624l-1.719,1.082a4.811,4.811,0,0,0-.992-1.07,2.358,2.358,0,0,0-1.521-.477h-.662q-2.143,0-2.143,1.753a1.509,1.509,0,0,0,.529,1.25,4.107,4.107,0,0,0,1.336.682q.806.259,1.732.477a8.147,8.147,0,0,1,1.733.619,3.636,3.636,0,0,1,1.335,1.121,3.294,3.294,0,0,1,.529,1.984" transform="translate(-12.2 -5.56)" fill="#fff"/>
      <path id="Path_11263" data-name="Path 11263" d="M219.859,71.326h1.428v-3.2l2.037-.258v3.454h3.28v1.753h-3.28V80.5a2.885,2.885,0,0,0,.383,1.623,1.62,1.62,0,0,0,1.442.567,5.531,5.531,0,0,0,.965-.077,8.773,8.773,0,0,0,.887-.206v1.779a7.684,7.684,0,0,1-.966.206,8.413,8.413,0,0,1-1.23.077,4.2,4.2,0,0,1-1.772-.322,2.7,2.7,0,0,1-1.072-.851,3.163,3.163,0,0,1-.529-1.237,7.371,7.371,0,0,1-.145-1.482v-7.5h-1.428Z" transform="translate(-23.391 -2.527)" fill="#fff"/>
      <path id="Path_11264" data-name="Path 11264" d="M241.513,87.246h-2.037V74.693q.424-.1.965-.219t1.138-.22q.595-.1,1.217-.167a11.634,11.634,0,0,1,1.2-.065,11.222,11.222,0,0,1,1.971.168,5.6,5.6,0,0,1,1.548.477q.74-.207,1.852-.425a11.2,11.2,0,0,1,2.169-.22,7.5,7.5,0,0,1,2.3.309,4.324,4.324,0,0,1,1.561.851,3.332,3.332,0,0,1,.9,1.276,4.274,4.274,0,0,1,.292,1.585v9.2h-2.037v-9.2a1.882,1.882,0,0,0-.754-1.675,4.028,4.028,0,0,0-2.262-.516,9.225,9.225,0,0,0-1.335.1,6.54,6.54,0,0,0-1.151.258V87.246h-2.037V76.5a3.744,3.744,0,0,0-1.27-.464,8.4,8.4,0,0,0-1.746-.18,9.226,9.226,0,0,0-1.336.1,6.53,6.53,0,0,0-1.151.258Z" transform="translate(-33.062 -5.56)" fill="#fff"/>
      <path id="Path_11265" data-name="Path 11265" d="M290.912,81.06h-8.439v.954a5.933,5.933,0,0,0,.225,1.765,2.866,2.866,0,0,0,.648,1.147,2.332,2.332,0,0,0,1.019.619,4.6,4.6,0,0,0,1.335.18,6.215,6.215,0,0,0,1.442-.167,8.776,8.776,0,0,0,1.323-.425,7.121,7.121,0,0,0,1.125-.58,8.661,8.661,0,0,0,.846-.606v1.985a5.311,5.311,0,0,1-1.958,1.121,8.177,8.177,0,0,1-2.751.451,8.32,8.32,0,0,1-2.222-.271,4.069,4.069,0,0,1-1.667-.889,3.889,3.889,0,0,1-1.045-1.624,7.469,7.469,0,0,1-.357-2.474V79.411A5.471,5.471,0,0,1,281.8,75.4a5.027,5.027,0,0,1,3.744-1.379h.211a6.642,6.642,0,0,1,2.063.309,4.307,4.307,0,0,1,1.64.954,4.377,4.377,0,0,1,1.072,1.624,6.446,6.446,0,0,1,.383,2.345Zm-7.54-4.446a3.769,3.769,0,0,0-.9,2.694h6.4a4.614,4.614,0,0,0-.251-1.637,3.057,3.057,0,0,0-.674-1.082,2.408,2.408,0,0,0-.992-.605,3.966,3.966,0,0,0-1.2-.18h-.106a3.151,3.151,0,0,0-2.275.811" transform="translate(-53.255 -5.561)" fill="#fff"/>
      <path id="Path_11266" data-name="Path 11266" d="M310.336,87.246H308.3V74.693q.5-.129,1.111-.245t1.257-.206q.647-.091,1.309-.155t1.243-.065a5.9,5.9,0,0,1,3.9,1.1,3.741,3.741,0,0,1,1.283,3v9.124h-2.037V78.225a2.174,2.174,0,0,0-.78-1.791,3.428,3.428,0,0,0-2.209-.632c-.247,0-.52.013-.82.039s-.591.056-.874.09-.541.074-.78.116-.428.082-.569.116Z" transform="translate(-66.992 -5.56)" fill="#fff"/>
      <path id="Path_11267" data-name="Path 11267" d="M333.814,71.326h1.428v-3.2l2.037-.258v3.454h3.28v1.753h-3.28V80.5a2.885,2.885,0,0,0,.383,1.623,1.62,1.62,0,0,0,1.442.567,5.532,5.532,0,0,0,.965-.077,8.772,8.772,0,0,0,.887-.206v1.779a7.684,7.684,0,0,1-.966.206,8.413,8.413,0,0,1-1.23.077,4.2,4.2,0,0,1-1.772-.322,2.7,2.7,0,0,1-1.072-.851,3.155,3.155,0,0,1-.529-1.237,7.373,7.373,0,0,1-.145-1.482v-7.5h-1.428Z" transform="translate(-79.571 -2.527)" fill="#fff"/>
      <path id="Path_11268" data-name="Path 11268" d="M113.144,124.73a6.409,6.409,0,0,0,1.878-.258,6.605,6.605,0,0,0,1.455-.619v-4.691h-3.068v-1.83h5.158v7.552a10.664,10.664,0,0,1-2.3,1.212,8.459,8.459,0,0,1-3.042.49h-1.481a6.2,6.2,0,0,1-2.222-.374,4.8,4.8,0,0,1-1.667-1.044,4.575,4.575,0,0,1-1.058-1.585,5.183,5.183,0,0,1-.371-1.972V113.26a5.186,5.186,0,0,1,.371-1.972,4.578,4.578,0,0,1,1.058-1.585,4.807,4.807,0,0,1,1.667-1.044,6.2,6.2,0,0,1,2.222-.374h1.64a5.148,5.148,0,0,1,3.413,1.044,4.756,4.756,0,0,1,1.614,2.59l-2.037.464a2.5,2.5,0,0,0-1.125-1.688,3.785,3.785,0,0,0-2.05-.555h-1.455a3.126,3.126,0,0,0-2.315.889,3.518,3.518,0,0,0-.886,2.59v7.63a3.517,3.517,0,0,0,.886,2.59,3.126,3.126,0,0,0,2.315.889Z" transform="translate(32.532 -22.451)" fill="#fff"/>
      <path id="Path_11269" data-name="Path 11269" d="M142.251,119.622a6.829,6.829,0,0,0-1.19.1,6.912,6.912,0,0,0-1.032.258v11.032h-2.037V118.462q.4-.129.925-.258t1.1-.219q.57-.09,1.151-.142t1.085-.051a10.815,10.815,0,0,1,1.19.077,5.845,5.845,0,0,1,1.217.258v2.062a8.232,8.232,0,0,0-1.164-.387,4.955,4.955,0,0,0-1.243-.18" transform="translate(16.97 -27.138)" fill="#fff"/>
      <path id="Path_11270" data-name="Path 11270" d="M155.993,122.948a7.652,7.652,0,0,1,.331-2.423,3.774,3.774,0,0,1,.979-1.585,3.845,3.845,0,0,1,1.587-.876,7.8,7.8,0,0,1,2.157-.27h.449a7.805,7.805,0,0,1,2.156.27,3.849,3.849,0,0,1,1.587.876,3.892,3.892,0,0,1,.992,1.585,7.369,7.369,0,0,1,.344,2.423v3.17a7.391,7.391,0,0,1-.344,2.41,3.874,3.874,0,0,1-.992,1.6,3.832,3.832,0,0,1-1.587.876,7.785,7.785,0,0,1-2.156.271h-.449a7.784,7.784,0,0,1-2.157-.271,3.828,3.828,0,0,1-1.587-.876,3.758,3.758,0,0,1-.979-1.6,7.674,7.674,0,0,1-.331-2.41Zm2.037,2.938a4.078,4.078,0,0,0,.754,2.823,2.883,2.883,0,0,0,2.183.785h.661a2.836,2.836,0,0,0,2.169-.785,4.131,4.131,0,0,0,.741-2.823V123.18a4.131,4.131,0,0,0-.741-2.823,2.839,2.839,0,0,0-2.169-.786h-.661a2.885,2.885,0,0,0-2.183.786,4.078,4.078,0,0,0-.754,2.823Z" transform="translate(8.095 -27.139)" fill="#fff"/>
      <path id="Path_11271" data-name="Path 11271" d="M192.133,118.453h2.037v12.475q-.5.1-1.111.232t-1.256.219q-.648.09-1.3.155t-1.257.064a5.691,5.691,0,0,1-3.928-1.147,3.812,3.812,0,0,1-1.256-2.951v-9.047H186.1v8.918a2.409,2.409,0,0,0,.252,1.16,2.123,2.123,0,0,0,.688.76,2.74,2.74,0,0,0,1.005.413,6.022,6.022,0,0,0,1.2.116q.37,0,.793-.039c.282-.026.555-.056.82-.09s.511-.072.74-.116.406-.081.529-.116Z" transform="translate(-5.744 -27.464)" fill="#fff"/>
      <path id="Path_11272" data-name="Path 11272" d="M217.189,131.272q-.768,0-1.508-.064t-1.508-.193v5.155h-2.037v-17.6a20.149,20.149,0,0,1,2.791-.567,19.9,19.9,0,0,1,2.632-.206,5.49,5.49,0,0,1,3.532,1.031,3.984,3.984,0,0,1,1.283,3.3v4.794a4.686,4.686,0,0,1-.291,1.637,3.742,3.742,0,0,1-.913,1.392,4.466,4.466,0,0,1-1.6.966,6.921,6.921,0,0,1-2.381.361m.37-11.7a12.172,12.172,0,0,0-1.852.142q-.926.141-1.534.3v9.124a11.712,11.712,0,0,0,1.468.258,13.072,13.072,0,0,0,1.548.1,3.4,3.4,0,0,0,2.407-.709,2.469,2.469,0,0,0,.741-1.868v-4.562a2.457,2.457,0,0,0-2.778-2.783" transform="translate(-19.583 -27.138)" fill="#fff"/>
    </g>
  </g>
</svg>
